<svg xmlns="http://www.w3.org/2000/svg" viewBox="0 0 697 200">
  <g transform="translate(-46.96, -0.19) scale(0.255591)">
    <path d="M 408.92 645.41 C407.23,646.84 405.32,648.00 404.67,647.99 C402.54,647.98 398.24,644.55 388.32,634.94 C353.06,600.78 324.80,564.56 303.30,526.00 C276.40,477.73 262.61,426.45 265.96,387.04 C269.32,347.50 286.56,322.24 313.82,316.94 C319.75,315.79 333.57,316.12 340.00,317.57 L 342.50 318.14 L 342.52 293.82 C342.53,267.19 343.64,257.50 349.11,236.00 C353.30,219.54 356.35,211.17 363.28,197.09 C370.50,182.41 377.52,172.21 387.34,162.17 C409.60,139.37 435.23,131.27 460.45,139.06 L 467.27 141.16 L 471.88 136.74 C486.83,122.44 502.33,111.78 522.50,101.95 C555.31,85.96 584.81,79.65 627.00,79.59 C658.77,79.55 681.67,83.33 705.00,92.48 C713.58,95.84 716.08,96.33 730.78,97.55 C758.02,99.81 774.86,103.41 793.29,110.91 C811.12,118.17 822.57,125.67 836.80,139.41 C841.92,144.35 848.31,151.38 851.02,155.03 C855.07,160.49 857.23,162.34 863.22,165.47 C883.80,176.24 896.17,188.32 905.33,206.61 C911.46,218.86 913.39,228.21 913.36,245.50 C913.34,258.49 912.98,261.82 910.70,270.34 C907.63,281.81 899.89,298.59 893.60,307.41 C886.47,317.41 872.49,330.03 863.77,334.33 C849.41,341.43 837.37,342.38 824.29,337.46 C818.54,335.29 809.07,329.20 806.33,325.90 C804.86,324.13 775.35,324.21 764.12,326.01 C760.06,326.66 752.98,327.04 748.39,326.85 C737.05,326.38 735.41,324.80 733.95,312.98 C732.57,301.75 731.48,297.90 727.25,289.20 C722.48,279.40 713.79,270.34 703.06,263.97 C683.14,252.15 661.93,250.97 642.80,260.60 C631.96,266.06 625.28,273.41 618.57,287.27 C609.37,306.28 607.04,315.63 607.02,333.80 C607.00,348.59 609.06,359.34 612.34,361.49 C615.67,363.67 640.65,374.49 658.50,381.49 C699.02,397.37 733.86,406.62 773.79,412.11 C792.87,414.74 835.17,415.76 854.13,414.07 C885.20,411.28 922.12,404.45 968.00,393.01 C1013.47,381.66 1053.06,375.99 1086.72,376.01 C1130.33,376.03 1165.42,382.64 1206.88,398.67 C1226.69,406.32 1236.53,411.46 1237.95,414.87 C1239.58,418.80 1237.67,422.89 1233.41,424.62 C1230.62,425.75 1229.59,425.55 1222.41,422.38 C1167.99,398.37 1122.41,389.20 1071.41,392.02 C1039.71,393.77 1013.25,398.20 966.50,409.57 C919.40,421.03 880.67,427.86 850.06,430.11 C821.23,432.23 783.91,430.26 752.50,424.94 C717.48,419.02 670.96,404.66 632.15,387.80 C625.91,385.08 620.64,383.03 620.44,383.23 C620.24,383.43 620.89,384.93 621.88,386.56 C624.48,390.84 644.25,403.70 663.19,413.42 C704.50,434.64 748.81,446.39 805.50,451.16 C825.78,452.87 887.23,452.60 934.00,450.61 C994.23,448.04 1020.06,448.49 1046.97,452.60 C1062.57,454.97 1082.98,461.17 1087.25,464.82 C1089.70,466.91 1089.43,470.25 1086.58,472.93 L 1084.15 475.21 L 1074.32 471.71 C1062.40,467.47 1049.58,464.62 1032.41,462.38 C1015.67,460.19 972.27,460.04 936.00,462.04 C919.47,462.95 890.50,463.50 859.00,463.50 C803.70,463.50 794.53,462.89 759.00,456.90 C722.19,450.68 688.03,439.79 659.28,425.10 C652.83,421.80 647.42,419.24 647.26,419.41 C646.71,419.96 663.60,434.85 674.13,443.10 C721.13,479.94 794.03,512.30 868.55,529.40 C893.43,535.12 935.50,541.00 951.46,541.00 C955.01,541.00 959.04,541.52 960.43,542.15 C965.11,544.28 965.55,551.01 961.26,554.86 C958.75,557.12 958.21,557.19 948.07,556.58 C910.67,554.32 879.95,549.13 841.00,538.47 C700.88,500.13 601.89,425.02 591.93,349.50 C589.43,330.58 592.08,308.93 599.02,291.45 C610.07,263.64 625.04,248.47 648.50,241.33 C657.11,238.71 682.92,238.74 691.50,241.38 C706.44,245.98 725.46,258.55 733.45,269.10 C737.99,275.09 746.00,290.33 746.00,292.98 C746.00,293.63 746.56,293.99 747.25,293.76 C749.22,293.13 753.06,276.46 753.66,266.00 C754.87,244.56 746.07,222.80 730.08,207.71 C719.18,197.43 708.98,192.36 688.54,187.05 C671.33,182.58 662.96,181.70 643.20,182.25 C627.01,182.70 624.34,183.04 612.00,186.28 C573.65,196.34 543.49,220.30 527.54,253.37 C517.97,273.21 515.12,284.66 514.31,306.50 C513.45,329.57 516.69,346.76 526.65,372.00 C546.94,423.44 598.43,478.91 665.25,521.33 C670.38,524.58 671.00,525.34 671.00,528.33 C671.00,531.77 668.55,535.00 665.94,535.00 C664.03,535.00 654.83,529.26 640.50,519.10 C564.06,464.96 517.66,404.38 504.85,342.00 C502.01,328.16 501.31,302.47 503.43,289.55 C506.41,271.45 511.93,255.59 520.52,240.52 C536.40,212.65 563.92,190.03 595.84,178.61 C615.16,171.69 646.42,168.34 667.58,170.92 C685.11,173.05 706.27,179.06 719.04,185.51 C744.69,198.49 761.40,223.21 765.14,253.72 C767.02,269.10 763.31,290.50 756.38,304.22 C755.07,306.81 754.00,309.40 754.00,309.97 C754.00,311.28 760.17,311.26 766.00,309.91 C782.63,306.08 797.66,291.15 803.97,272.18 C806.31,265.13 808.99,248.99 808.99,241.85 C809.01,229.15 802.74,204.36 796.25,191.50 C783.21,165.63 759.67,140.48 733.06,123.98 C700.90,104.03 667.90,95.00 627.19,95.00 C570.63,95.00 525.02,110.96 487.25,143.97 C455.44,171.78 433.55,212.57 424.74,260.47 C422.82,270.92 422.53,275.99 422.52,299.00 C422.51,315.93 422.97,328.57 423.81,334.00 C430.09,374.78 444.26,410.52 468.66,447.13 C479.68,463.67 490.42,476.52 506.71,492.66 C514.02,499.90 520.00,506.56 520.00,507.46 C520.00,510.58 517.05,514.79 514.14,515.80 C509.92,517.27 506.69,514.99 491.93,500.15 C467.80,475.88 449.71,450.47 434.52,419.50 C424.02,398.09 418.68,383.65 413.59,362.81 C407.60,338.34 406.51,328.63 406.51,300.00 C406.51,271.94 407.70,261.00 412.99,240.60 C421.08,209.38 433.90,182.04 450.24,161.13 C454.10,156.20 454.92,154.56 453.86,153.91 C451.44,152.40 443.91,151.72 436.11,152.30 C429.69,152.79 427.08,153.59 419.44,157.46 C403.00,165.77 389.61,180.38 378.49,202.10 C355.86,246.34 351.29,303.77 365.96,359.50 C373.04,386.41 387.30,417.68 403.66,442.19 C413.93,457.57 414.94,460.83 410.69,464.83 C407.99,467.35 404.34,467.62 401.33,465.52 C398.61,463.61 383.74,441.34 376.95,429.00 C364.54,406.45 353.56,377.52 348.48,354.00 C347.00,347.12 345.47,340.15 345.08,338.50 C344.05,334.07 339.11,332.61 325.00,332.55 C314.85,332.51 312.93,332.78 308.67,334.88 C290.29,343.93 279.41,372.27 281.42,405.87 C284.82,462.82 313.54,525.25 364.56,586.59 C369.63,592.69 382.38,606.49 392.89,617.26 C414.21,639.11 414.92,640.36 408.92,645.41 ZM 802.00 307.52 C802.00,309.30 816.16,303.99 822.34,299.90 C834.05,292.14 844.67,279.00 850.49,265.08 C859.47,243.57 860.24,215.46 852.47,192.32 C841.43,159.42 813.36,133.05 777.26,121.64 C768.14,118.76 753.58,115.64 751.89,116.20 C751.27,116.41 754.30,119.22 758.63,122.44 C762.96,125.66 771.03,132.85 776.57,138.40 C815.57,177.50 832.15,226.90 820.97,270.63 C818.44,280.50 811.95,294.17 806.45,301.17 C804.00,304.28 802.00,307.14 802.00,307.52 ZM 1026.23 644.25 C1024.26,646.49 1022.83,646.37 1015.50,643.36 C991.13,633.35 956.69,629.86 902.06,631.87 C884.70,632.51 860.60,633.53 848.50,634.13 C783.43,637.35 729.16,634.48 684.84,625.47 C638.42,616.04 593.38,596.63 556.75,570.26 C549.77,565.23 549.00,564.35 549.00,561.37 C549.00,557.93 551.06,556.00 554.74,556.00 C555.77,556.00 559.74,558.20 563.56,560.88 C581.02,573.17 604.72,586.34 623.95,594.44 C659.61,609.47 693.07,617.12 745.50,622.21 C763.16,623.92 828.75,623.78 861.50,621.95 C899.94,619.81 962.94,619.99 978.98,622.29 C1000.05,625.31 1023.78,632.16 1027.27,636.22 C1029.20,638.46 1028.83,641.29 1026.23,644.25 ZM 749.37 701.93 C746.42,704.25 740.25,704.44 717.71,702.91 C614.26,695.92 520.87,651.97 445.40,574.78 C428.86,557.86 421.00,548.59 421.00,546.02 C421.00,543.18 423.76,541.00 427.35,541.00 C430.10,541.00 431.43,542.03 436.70,548.25 C451.04,565.19 476.28,589.16 496.58,605.11 C565.29,659.10 645.51,688.84 730.00,691.65 C749.82,692.31 752.00,692.90 752.00,697.58 C752.00,698.85 750.83,700.77 749.37,701.93 ZM 830.70 323.53 C833.13,324.46 837.05,324.86 841.55,324.65 C852.00,324.17 860.15,319.86 871.11,309.01 C888.22,292.10 898.00,268.57 898.00,244.34 C898.00,233.22 895.73,223.42 890.76,213.00 C887.49,206.15 885.02,202.80 878.08,195.75 C873.33,190.94 868.97,187.00 868.37,187.00 C867.71,187.00 868.17,190.00 869.58,194.86 C876.76,219.65 874.37,251.18 863.54,274.63 C856.06,290.80 840.87,308.06 828.11,314.86 L 821.93 318.16 L 824.42 320.11 C825.79,321.19 828.62,322.73 830.70,323.53 Z" fill="#4a7c7c"/>
  </g>
  <path d="M14.85 0L6.23 0L6.23-46.40L25.26-46.40Q34.54-46.40 39.81-42.00Q45.08-37.59 45.08-29.90L45.08-29.90Q45.08-24.59 42.49-20.85Q39.91-17.10 35.20-15.18L35.20-15.18L45.87 0L36.59 0L27.11-13.59Q26.25-13.52 25.32-13.52L25.32-13.52L14.85-13.52L14.85 0ZM14.85-39.11L14.85-20.62L24.93-20.62Q30.63-20.62 33.51-23.07Q36.39-25.52 36.39-29.90L36.39-29.90Q36.39-34.27 33.51-36.69Q30.63-39.11 24.93-39.11L24.93-39.11L14.85-39.11ZM63.51 0L55.22 0L55.22-35.40L63.51-35.40L63.51 0ZM59.40-41.23L59.40-41.23Q57.08-41.23 55.59-42.69Q54.09-44.15 54.09-46.21L54.09-46.21Q54.09-48.26 55.59-49.72Q57.08-51.18 59.40-51.18L59.40-51.18Q61.72-51.18 63.21-49.82Q64.70-48.46 64.70-46.40L64.70-46.40Q64.70-44.22 63.21-42.73Q61.72-41.23 59.40-41.23ZM90.69 0.46L90.69 0.46Q85.58 0.46 81.54-1.79Q77.50-4.04 75.14-8.12Q72.79-12.20 72.79-17.70L72.79-17.70Q72.79-23.20 75.14-27.28Q77.50-31.36 81.54-33.58Q85.58-35.80 90.69-35.80L90.69-35.80Q94.14-35.80 97.05-34.64Q99.97-33.48 102.09-31.09L102.09-31.09L102.09-49.19L110.38-49.19L110.38 0L102.42 0L102.42-4.64Q100.37-2.06 97.35-0.80Q94.33 0.46 90.69 0.46ZM91.68-6.63L91.68-6.63Q94.67-6.63 97.05-7.99Q99.44-9.35 100.83-11.83Q102.22-14.32 102.22-17.70L102.22-17.70Q102.22-21.08 100.83-23.57Q99.44-26.05 97.05-27.41Q94.67-28.77 91.68-28.77L91.68-28.77Q88.70-28.77 86.31-27.41Q83.93-26.05 82.53-23.57Q81.14-21.08 81.14-17.70L81.14-17.70Q81.14-14.32 82.53-11.83Q83.93-9.35 86.31-7.99Q88.70-6.63 91.68-6.63ZM139.21 0.46L139.21 0.46Q133.31 0.46 128.91-1.89Q124.50-4.24 122.08-8.32Q119.66-12.40 119.66-17.70L119.66-17.70Q119.66-23.00 122.01-27.08Q124.37-31.16 128.51-33.48Q132.65-35.80 137.96-35.80L137.96-35.80Q143.13-35.80 147.17-33.54Q151.21-31.29 153.53-27.15Q155.85-23.00 155.85-17.50L155.85-17.50Q155.85-16.97 155.82-16.31Q155.79-15.65 155.72-15.05L155.72-15.05L127.95-15.05Q128.67-11.20 131.72-8.88Q134.77-6.56 139.41-6.56L139.41-6.56Q145.31-6.56 149.03-10.41L149.03-10.41L153.47-5.30Q148.56 0.46 139.21 0.46ZM127.88-20.55L127.88-20.55L147.97-20.55Q147.44-24.40 144.72-26.78Q142.00-29.17 137.96-29.17L137.96-29.17Q133.91-29.17 131.19-26.82Q128.48-24.46 127.88-20.55ZM194.17 0L185.55 0L185.55-46.40L194.17-46.40L194.17 0ZM220.56 0.46L220.56 0.46Q214.72 0.46 211.54-2.55Q208.36-5.57 208.36-11.47L208.36-11.47L208.36-28.77L202.52-28.77L202.52-35.40L208.36-35.40L208.36-43.22L216.64-43.22L216.64-35.40L226.12-35.40L226.12-28.77L216.64-28.77L216.64-11.67Q216.64-9.08 217.90-7.72Q219.16-6.36 221.55-6.36L221.55-6.36Q224.27-6.36 226.19-7.82L226.19-7.82L228.51-1.92Q226.99-0.73 224.90-0.13Q222.81 0.46 220.56 0.46ZM278.76 0.66L278.76 0.66Q273.39 0.66 268.82-1.13Q264.24-2.92 260.86-6.13Q257.48-9.35 255.63-13.69Q253.77-18.03 253.77-23.20L253.77-23.20Q253.77-28.37 255.63-32.72Q257.48-37.06 260.86-40.27Q264.24-43.49 268.82-45.28Q273.39-47.07 278.76-47.07L278.76-47.07Q284.20-47.07 288.74-45.28Q293.28-43.49 296.66-40.27Q300.04-37.06 301.90-32.72Q303.75-28.37 303.75-23.20L303.75-23.20Q303.75-18.03 301.90-13.69Q300.04-9.35 296.66-6.13Q293.28-2.92 288.74-1.13Q284.20 0.66 278.76 0.66ZM278.76-6.89L278.76-6.89Q283.47-6.89 287.15-8.98Q290.83-11.07 292.95-14.78Q295.07-18.50 295.07-23.20L295.07-23.20Q295.07-27.91 292.95-31.62Q290.83-35.33 287.15-37.42Q283.47-39.51 278.76-39.51L278.76-39.51Q274.05-39.51 270.38-37.42Q266.70-35.33 264.57-31.62Q262.45-27.91 262.45-23.20L262.45-23.20Q262.45-18.50 264.57-14.78Q266.70-11.07 270.38-8.98Q274.05-6.89 278.76-6.89ZM328.41 0.46L328.41 0.46Q321.65 0.46 317.41-3.35Q313.17-7.16 313.17-15.18L313.17-15.18L313.17-35.40L321.45-35.40L321.45-16.31Q321.45-11.47 323.64-9.15Q325.83-6.83 329.74-6.83L329.74-6.83Q334.12-6.83 336.77-9.51Q339.42-12.20 339.42-17.50L339.42-17.50L339.42-35.40L347.71-35.40L347.71 0L339.82 0L339.82-4.51Q337.83-2.12 334.84-0.83Q331.86 0.46 328.41 0.46ZM373.23 0.46L373.23 0.46Q367.39 0.46 364.21-2.55Q361.03-5.57 361.03-11.47L361.03-11.47L361.03-28.77L355.20-28.77L355.20-35.40L361.03-35.40L361.03-43.22L369.32-43.22L369.32-35.40L378.80-35.40L378.80-28.77L369.32-28.77L369.32-11.67Q369.32-9.08 370.58-7.72Q371.84-6.36 374.22-6.36L374.22-6.36Q376.94-6.36 378.86-7.82L378.86-7.82L381.18-1.92Q379.66-0.73 377.57-0.13Q375.48 0.46 373.23 0.46Z" transform="translate(295.74, 125.26)" fill="#4a7c7c"/>
</svg>
