<svg xmlns="http://www.w3.org/2000/svg" viewBox="0 0 488 117">
  <path d="M16.13 0L6.77 0L6.77-50.40L27.43-50.40Q37.51-50.40 43.24-45.61Q48.96-40.82 48.96-32.47L48.96-32.47Q48.96-26.71 46.15-22.64Q43.34-18.58 38.23-16.49L38.23-16.49L49.82 0L39.74 0L29.45-14.76Q28.51-14.69 27.50-14.69L27.50-14.69L16.13-14.69L16.13 0ZM16.13-42.48L16.13-22.39L27.07-22.39Q33.26-22.39 36.40-25.06Q39.53-27.72 39.53-32.47L39.53-32.47Q39.53-37.22 36.40-39.85Q33.26-42.48 27.07-42.48L27.07-42.48L16.13-42.48ZM68.98 0L59.98 0L59.98-38.45L68.98-38.45L68.98 0ZM64.51-44.78L64.51-44.78Q61.99-44.78 60.37-46.37Q58.75-47.95 58.75-50.18L58.75-50.18Q58.75-52.42 60.37-54.00Q61.99-55.58 64.51-55.58L64.51-55.58Q67.03-55.58 68.65-54.11Q70.27-52.63 70.27-50.40L70.27-50.40Q70.27-48.02 68.65-46.40Q67.03-44.78 64.51-44.78ZM98.50 0.50L98.50 0.50Q92.95 0.50 88.56-1.94Q84.17-4.39 81.61-8.82Q79.06-13.25 79.06-19.22L79.06-19.22Q79.06-25.20 81.61-29.63Q84.17-34.06 88.56-36.47Q92.95-38.88 98.50-38.88L98.50-38.88Q102.24-38.88 105.41-37.62Q108.58-36.36 110.88-33.77L110.88-33.77L110.88-53.42L119.88-53.42L119.88 0L111.24 0L111.24-5.04Q109.01-2.23 105.73-0.86Q102.46 0.50 98.50 0.50ZM99.58-7.20L99.58-7.20Q102.82-7.20 105.41-8.68Q108.00-10.15 109.51-12.85Q111.02-15.55 111.02-19.22L111.02-19.22Q111.02-22.90 109.51-25.60Q108.00-28.30 105.41-29.77Q102.82-31.25 99.58-31.25L99.58-31.25Q96.34-31.25 93.74-29.77Q91.15-28.30 89.64-25.60Q88.13-22.90 88.13-19.22L88.13-19.22Q88.13-15.55 89.64-12.85Q91.15-10.15 93.74-8.68Q96.34-7.20 99.58-7.20ZM151.20 0.50L151.20 0.50Q144.79 0.50 140.00-2.05Q135.22-4.61 132.59-9.04Q129.96-13.46 129.96-19.22L129.96-19.22Q129.96-24.98 132.52-29.41Q135.07-33.84 139.57-36.36Q144.07-38.88 149.83-38.88L149.83-38.88Q155.45-38.88 159.84-36.43Q164.23-33.98 166.75-29.48Q169.27-24.98 169.27-19.01L169.27-19.01Q169.27-18.43 169.24-17.71Q169.20-16.99 169.13-16.34L169.13-16.34L138.96-16.34Q139.75-12.17 143.06-9.65Q146.38-7.13 151.42-7.13L151.42-7.13Q157.82-7.13 161.86-11.30L161.86-11.30L166.68-5.76Q161.35 0.50 151.20 0.50ZM138.89-22.32L138.89-22.32L160.70-22.32Q160.13-26.50 157.18-29.09Q154.22-31.68 149.83-31.68L149.83-31.68Q145.44-31.68 142.49-29.12Q139.54-26.57 138.89-22.32ZM210.89 0L201.53 0L201.53-50.40L210.89-50.40L210.89 0ZM239.54 0.50L239.54 0.50Q233.21 0.50 229.75-2.77Q226.30-6.05 226.30-12.46L226.30-12.46L226.30-31.25L219.96-31.25L219.96-38.45L226.30-38.45L226.30-46.94L235.30-46.94L235.30-38.45L245.59-38.45L245.59-31.25L235.30-31.25L235.30-12.67Q235.30-9.86 236.66-8.39Q238.03-6.91 240.62-6.91L240.62-6.91Q243.58-6.91 245.66-8.50L245.66-8.50L248.18-2.09Q246.53-0.79 244.26-0.14Q241.99 0.50 239.54 0.50ZM302.76 0.72L302.76 0.72Q296.93 0.72 291.96-1.22Q286.99-3.17 283.32-6.66Q279.65-10.15 277.63-14.87Q275.62-19.58 275.62-25.20L275.62-25.20Q275.62-30.82 277.63-35.53Q279.65-40.25 283.32-43.74Q286.99-47.23 291.96-49.18Q296.93-51.12 302.76-51.12L302.76-51.12Q308.66-51.12 313.60-49.18Q318.53-47.23 322.20-43.74Q325.87-40.25 327.89-35.53Q329.90-30.82 329.90-25.20L329.90-25.20Q329.90-19.58 327.89-14.87Q325.87-10.15 322.20-6.66Q318.53-3.17 313.60-1.22Q308.66 0.72 302.76 0.72ZM302.76-7.49L302.76-7.49Q307.87-7.49 311.87-9.76Q315.86-12.02 318.17-16.06Q320.47-20.09 320.47-25.20L320.47-25.20Q320.47-30.31 318.17-34.34Q315.86-38.38 311.87-40.64Q307.87-42.91 302.76-42.91L302.76-42.91Q297.65-42.91 293.65-40.64Q289.66-38.38 287.35-34.34Q285.05-30.31 285.05-25.20L285.05-25.20Q285.05-20.09 287.35-16.06Q289.66-12.02 293.65-9.76Q297.65-7.49 302.76-7.49ZM356.69 0.50L356.69 0.50Q349.34 0.50 344.74-3.64Q340.13-7.78 340.13-16.49L340.13-16.49L340.13-38.45L349.13-38.45L349.13-17.71Q349.13-12.46 351.50-9.94Q353.88-7.42 358.13-7.42L358.13-7.42Q362.88-7.42 365.76-10.33Q368.64-13.25 368.64-19.01L368.64-19.01L368.64-38.45L377.64-38.45L377.64 0L369.07 0L369.07-4.90Q366.91-2.30 363.67-0.90Q360.43 0.50 356.69 0.50ZM405.36 0.50L405.36 0.50Q399.02 0.50 395.57-2.77Q392.11-6.05 392.11-12.46L392.11-12.46L392.11-31.25L385.78-31.25L385.78-38.45L392.11-38.45L392.11-46.94L401.11-46.94L401.11-38.45L411.41-38.45L411.41-31.25L401.11-31.25L401.11-12.67Q401.11-9.86 402.48-8.39Q403.85-6.91 406.44-6.91L406.44-6.91Q409.39-6.91 411.48-8.50L411.48-8.50L414.00-2.09Q412.34-0.79 410.08-0.14Q407.81 0.50 405.36 0.50Z" transform="translate(33.23, 85.58)" fill="#e8eaed"/>
</svg>
